<svg width="18" height="22" viewBox="0 0 18 22" fill="none" xmlns="http://www.w3.org/2000/svg">
<mask id="mask0_0_692" style="mask-type:luminance" maskUnits="userSpaceOnUse" x="0" y="0" width="18" height="22">
<path fill-rule="evenodd" clip-rule="evenodd" d="M0 0H17.2821V22H0V0Z" fill="white"/>
</mask>
<g mask="url(#mask0_0_692)">
<path fill-rule="evenodd" clip-rule="evenodd" d="M4.76016 14.9292C4.38875 14.9297 4.10717 15.113 3.98389 15.4226C3.76972 15.9606 4.16238 16.4983 4.778 16.4988C7.33863 16.501 9.89932 16.5001 12.46 16.4995C12.9982 16.4993 13.3582 16.1774 13.3532 15.705C13.3483 15.2433 12.9912 14.929 12.4667 14.9287C11.1905 14.9278 9.91421 14.9284 8.63799 14.9284C7.34538 14.9284 6.05277 14.9273 4.76016 14.9292V14.9292ZM12.5115 11.7864C12.8766 11.7869 13.147 11.6323 13.2918 11.2985C13.5214 10.7697 13.1224 10.2164 12.5133 10.2152C10.8608 10.2124 9.20817 10.2143 7.55562 10.2143C6.62301 10.2143 5.69034 10.2149 4.75774 10.2139C4.40337 10.2136 4.1395 10.3657 3.99477 10.6892C3.75779 11.2192 4.14822 11.782 4.7559 11.7842C6.04851 11.7886 7.34112 11.7856 8.63373 11.7856C9.92634 11.7856 11.2189 11.7843 12.5115 11.7864V11.7864ZM4.8119 5.50042C4.28678 5.50081 3.93235 5.81492 3.92874 6.27899C3.92513 6.74267 4.28284 7.07081 4.79983 7.071C7.36053 7.07199 9.92123 7.07199 12.4819 7.071C12.9994 7.07081 13.3566 6.74339 13.3532 6.27945C13.3498 5.81734 12.9926 5.50081 12.4694 5.50042C11.1931 5.4995 9.9169 5.50009 8.64062 5.50009C7.3644 5.50009 6.08818 5.49944 4.8119 5.50042V5.50042ZM15.7108 20.4282V20.1499C15.7108 14.7892 15.7112 9.42855 15.7105 4.06787C15.7103 2.57362 14.7108 1.57223 13.22 1.5719C9.43151 1.57111 5.64306 1.57164 1.85454 1.57164H1.57133C1.57133 1.68593 1.57133 1.774 1.57133 1.86207C1.57133 7.21455 1.57106 12.567 1.57146 17.9195C1.57159 19.4295 2.5676 20.4278 4.07451 20.428C7.85483 20.4286 11.6352 20.4282 15.4155 20.4282H15.7108ZM17.2819 12.447C17.2819 15.3191 17.282 18.1912 17.2817 21.0632C17.2817 21.7025 16.9887 21.9994 16.3575 21.9994C12.2506 21.9997 8.14382 22.0006 4.037 21.9992C1.71946 21.9984 0.00107173 20.2839 0.000612708 17.9718C-0.000502063 12.2931 0.00021926 6.6144 0.000350409 0.935628C0.000350409 0.29529 0.291502 0.000400282 0.924102 0.000400282C5.03092 0.000137983 9.13774 -0.00058334 13.2446 0.000597006C15.5732 0.00125275 17.2808 1.71544 17.2816 4.05168C17.2826 6.85008 17.2819 9.64849 17.2819 12.447V12.447Z" fill="white"/>
</g>
</svg>
