<svg width="22" height="22" viewBox="0 0 22 22" fill="none" xmlns="http://www.w3.org/2000/svg">
<path fill-rule="evenodd" clip-rule="evenodd" d="M12.1385 13.2515C12.1385 9.28469 12.1385 5.31793 12.1383 1.35117C12.1383 1.2564 12.1411 1.16133 12.1354 1.06682C12.0996 0.473491 11.6039 0.00443901 11.0106 6.83781e-05C10.3528 -0.004809 9.86327 0.509026 9.86308 1.21251C9.86207 5.22665 9.86258 9.24073 9.86258 13.2549C9.86258 13.3377 9.86258 13.4206 9.86258 13.5481C9.77048 13.4622 9.71322 13.4118 9.65931 13.3581C8.94911 12.6491 8.24361 11.9354 7.52802 11.232C7.05023 10.7623 6.34206 10.7672 5.89467 11.2268C5.44266 11.6911 5.46673 12.382 5.96106 12.8777C7.33375 14.254 8.70905 15.6278 10.0841 17.0017C10.6859 17.6032 11.3179 17.6021 11.9215 16.9992C12.8774 16.0442 13.8326 15.0885 14.7879 14.1329C15.2236 13.697 15.6634 13.2649 16.0927 12.8229C16.4411 12.464 16.5222 12.0343 16.3361 11.5757C16.0334 10.8296 15.0769 10.6444 14.4868 11.2201C13.763 11.9263 13.0543 12.6483 12.3386 13.3629C12.2854 13.4161 12.2281 13.4652 12.1385 13.5478V13.2515ZM19.7248 19.7072V19.4091C19.7248 16.6201 19.723 13.8312 19.726 11.0422C19.7268 10.238 20.4373 9.69142 21.1844 9.90944C21.6762 10.053 21.9985 10.489 21.9995 11.032C22.0024 12.6042 22.0007 14.1765 22.0007 15.7487C22.0007 17.163 22.0018 18.5772 22.0003 19.9914C21.999 21.1942 21.1961 21.9992 19.9955 21.9994C13.9988 22.0002 8.00221 22.0002 2.00557 21.9994C0.804402 21.9992 0.00115495 21.1943 0.000774892 19.9917C-0.000238589 17.0052 -0.000681986 14.0187 0.00147166 11.0323C0.00191506 10.4461 0.373292 9.99375 0.93115 9.88043C1.43238 9.7787 1.97314 10.0521 2.16994 10.5376C2.24177 10.7147 2.27154 10.9203 2.27199 11.1131C2.27826 13.8862 2.27629 16.6594 2.27629 19.4325V19.7072H19.7248Z" fill="#979797"/>
</svg>
