<svg width="152" height="152" viewBox="0 0 152 152" fill="none" xmlns="http://www.w3.org/2000/svg">
<circle cx="75.9996" cy="75.9996" r="75.9996" fill="white"/>
<mask id="mask0_0_785" style="mask-type:luminance" maskUnits="userSpaceOnUse" x="0" y="0" width="152" height="152">
<path fill-rule="evenodd" clip-rule="evenodd" d="M0 0H152V151.999H0V0Z" fill="white"/>
</mask>
<g mask="url(#mask0_0_785)">
<path fill-rule="evenodd" clip-rule="evenodd" d="M73.4886 67.4504C73.4997 68.8925 74.6623 70.0599 76.1005 70.0733C77.5536 70.0867 78.7407 68.8925 78.7368 67.4229C78.7328 65.9689 77.5788 64.8149 76.1312 64.8157C74.6434 64.8165 73.4768 65.98 73.4886 67.4504V67.4504ZM92.566 79.2322C92.4574 73.9832 90.2029 69.9269 85.8057 67.06C85.1767 66.6499 84.5171 66.3586 83.7488 66.2838C82.5892 66.172 81.4376 65.9894 80.2686 65.8359C80.3481 66.2948 80.4796 66.6798 80.4654 67.0592C80.4458 67.5835 80.6732 67.918 81.0243 68.2675C84.702 71.9248 88.3656 75.5962 92.0331 79.2637C92.17 79.4006 92.3125 79.5321 92.5432 79.7525C92.555 79.4967 92.5683 79.3636 92.566 79.2322V79.2322ZM59.6531 79.5888C63.5961 75.6489 67.5383 71.7091 71.475 67.7637C71.5915 67.6472 71.6947 67.4819 71.7261 67.3237C71.8214 66.8349 71.8781 66.3389 71.9568 65.7989C70.6879 65.9752 69.4276 66.1067 68.1854 66.3405C67.5509 66.4602 66.8936 66.668 66.3434 66.9978C63.5332 68.6832 61.5361 71.0738 60.3679 74.1438C59.6949 75.9126 59.3839 77.7405 59.4579 79.7163C59.5894 79.6313 59.6264 79.6155 59.6531 79.5888V79.5888ZM98.0503 65.9878C95.1196 62.3149 91.3026 60.4595 86.6054 60.4256C85.0972 60.4146 83.663 60.661 82.3885 61.5765C81.7572 62.0299 81.0385 62.3613 80.36 62.7502C79.8066 63.0682 79.2555 63.3901 78.7029 63.7105C78.7092 63.7522 78.7147 63.794 78.721 63.8357C85.2326 64.7315 91.7442 65.6273 98.4187 66.5452C98.2376 66.2689 98.155 66.1193 98.0503 65.9878V65.9878ZM73.0911 63.568C71.4963 62.6565 69.903 61.7426 68.3011 60.8428C68.102 60.731 67.865 60.6618 67.6375 60.6303C62.1076 59.8612 57.5561 61.6174 54.0043 65.9359C53.8792 66.0886 53.78 66.2618 53.5816 66.5522C60.2664 65.6336 66.7803 64.7378 73.4115 63.8255C73.2336 63.6814 73.1691 63.6129 73.0911 63.568V63.568ZM95.0448 52.3381C87.5564 49.8018 78.8226 54.3494 76.9656 62.6667C83.0332 59.2008 89.0166 55.782 95.0448 52.3381V52.3381ZM75.0386 62.6565C73.3816 54.7563 64.9013 49.7357 56.9586 52.3302C63.0239 55.7946 69.0001 59.2078 75.0386 62.6565V62.6565ZM82.8742 104.08H69.2473C68.8986 102.263 70.2415 89.9182 71.2373 85.8225C71.4239 85.8225 71.6325 85.8225 71.8403 85.8225C73.3666 85.8225 74.893 85.824 76.4193 85.8209C76.6138 85.8209 76.8153 85.8264 77.0018 85.7815C77.4915 85.6627 77.7308 85.3305 77.6717 84.8306C77.6119 84.3229 77.2829 84.0781 76.7861 84.0757C75.2795 84.0686 73.7728 84.0718 72.2662 84.0702C72.0544 84.0702 71.8426 84.0702 71.553 84.0702C71.8001 82.9146 72.019 81.8283 72.2827 80.7522C72.3126 80.6294 72.5944 80.498 72.7637 80.4917C73.5453 80.4641 74.3294 80.4861 75.1118 80.4767C75.7164 80.4696 76.0974 80.1414 76.1139 79.6399C76.1304 79.1204 75.7345 78.7441 75.1087 78.7307C74.3498 78.7134 73.5902 78.7268 72.7156 78.7268C73.3595 76.3149 73.9806 73.9856 74.5805 71.7351H77.4001C79.2004 77.8853 80.637 84.178 81.625 90.6636C80.6717 90.6636 79.7601 90.6636 78.8486 90.6636C78.3983 90.6636 77.948 90.6534 77.4985 90.6683C76.92 90.6872 76.5823 91.0021 76.5681 91.5083C76.5531 92.0325 76.9058 92.4064 77.5001 92.4175C78.6541 92.4379 79.8089 92.4245 80.9637 92.4253C81.2534 92.4253 81.5439 92.4253 81.8957 92.4253C82.102 94.2319 82.3043 95.9944 82.5168 97.8529C81.6643 97.8529 80.8716 97.8529 80.0781 97.8529C79.8042 97.8529 79.5295 97.8419 79.2563 97.8577C78.6675 97.8915 78.3141 98.2497 78.333 98.7747C78.3511 99.2785 78.6927 99.6028 79.2697 99.6099C80.3647 99.6233 81.4589 99.6139 82.6506 99.6139C82.7254 101.097 82.7979 102.551 82.8742 104.08V104.08ZM126.238 103.687L123.212 103.363L125.163 105.697L126.238 103.687ZM128.206 103.906L126.439 107.212L127.622 108.633L126.416 110.889L120.483 103.284L121.647 101.106L131.275 101.797L130.045 104.098L128.206 103.906ZM123.774 114.386L124.097 114.789C124.655 114.229 125.208 114.281 125.573 114.573C126.203 115.074 126.1 116.012 125.351 116.954C125.082 117.291 124.685 117.606 124.394 117.73L123.86 116.885C124.074 116.778 124.298 116.618 124.488 116.379C124.772 116.023 124.764 115.79 124.607 115.664C124.459 115.547 124.257 115.598 124.005 115.915L123.713 116.281L123.012 115.383C122.162 116.309 121.134 117.013 120.283 117.274L119.358 115.485C120.251 115.192 121.221 114.54 121.86 113.737C122.507 112.924 122.533 112.427 122.199 112.16C121.105 111.29 118.762 115.869 116.201 113.83C114.97 112.849 114.77 111.038 116.412 108.977C117.13 108.075 118.079 107.309 119.017 106.939L119.984 108.696C119.1 109.077 118.402 109.59 117.921 110.195C117.266 111.018 117.305 111.534 117.65 111.809C118.704 112.648 121.049 108.086 123.59 110.11C124.682 110.981 124.966 112.566 123.774 114.386V114.386ZM114.868 118.648L112.141 117.299L113.165 120.164L114.868 118.648ZM116.64 119.533L113.838 122.026L114.456 123.768L112.544 125.468L109.608 116.283L111.454 114.641L120.249 118.615L118.299 120.349L116.64 119.533ZM108.022 124.54L109.72 127.205L107.606 128.553L105.887 125.856L100.021 122.938L102.252 121.516L105.905 123.336L105.798 119.255L107.848 117.947L108.022 124.54ZM96.8128 131.402L96.6105 130.846L95.6344 131.202C94.9079 131.466 94.741 131.822 94.8834 132.213C95.0212 132.591 95.4298 132.75 95.9658 132.555C96.4657 132.373 96.8199 131.976 96.8128 131.402V131.402ZM98.5265 129.076L99.8246 132.637L97.7181 133.404L97.4158 132.577C97.319 133.308 96.7924 133.862 95.8525 134.205C94.3049 134.769 93.1328 134.218 92.7281 133.105C92.2968 131.922 92.8982 130.872 94.8984 130.143L96.1831 129.675C95.9107 129.038 95.3369 128.831 94.4434 129.156C93.8247 129.382 93.2115 129.846 92.8966 130.35L91.5789 129.101C92.1401 128.348 93.1398 127.688 94.1514 127.32C96.2469 126.556 97.7858 127.041 98.5265 129.076V129.076ZM91.2585 128.548L89.8211 136.109C89.4779 137.983 88.5923 138.697 87.2659 138.976C86.5598 139.124 85.7167 139.057 85.1925 138.781L85.6656 136.97C85.9907 137.159 86.4181 137.224 86.7904 137.145C87.2486 137.049 87.4729 136.822 87.5879 136.385L83.2883 130.224L85.7049 129.716L88.2121 133.449L89.0142 129.021L91.2585 128.548ZM78.4809 133.232L81.2888 133.069C81.1212 132.359 80.5646 131.938 79.8176 131.981C79.0721 132.024 78.5793 132.507 78.4809 133.232V133.232ZM83.5748 134.199L78.5912 134.487C78.8328 135.168 79.4508 135.535 80.3363 135.484C81.0062 135.445 81.4384 135.231 81.8832 134.802L83.2229 136.036C82.6066 136.803 81.6675 137.236 80.3647 137.311C77.9236 137.453 76.2564 136.049 76.1399 134.011C76.0226 131.961 77.545 130.409 79.7082 130.284C81.7312 130.167 83.4496 131.354 83.5787 133.605C83.5882 133.781 83.5764 134.009 83.5748 134.199V134.199ZM76.1296 130.645L72.6605 137.175L70.188 136.943L68.0201 129.881L70.48 130.112L71.7261 134.418L73.8468 130.43L76.1296 130.645ZM60.057 131.12L59.894 128.081L57.9017 130.381L60.057 131.12ZM60.1554 133.098L56.6107 131.883L55.3969 133.277L52.9778 132.447L59.5374 125.375L61.8722 126.177L62.7255 135.791L60.2593 134.944L60.1554 133.098ZM50.403 121.014L52.6126 122.199L49.3773 128.226L53.1046 130.223L52.1694 131.965L46.2325 128.784L50.403 121.014ZM43.7119 122.777L44.5172 119.844L41.8998 121.394L43.7119 122.777ZM43.1798 124.683L40.2011 122.408L38.6079 123.346L36.5746 121.793L45.0328 117.165L46.9953 118.664L44.7683 128.051L42.6949 126.467L43.1798 124.683ZM37.9411 113.191L37.0012 112.162L35.0955 113.904L36.0346 114.932C36.7352 115.698 37.4381 115.758 38.0332 115.215C38.6378 114.663 38.6409 113.956 37.9411 113.191V113.191ZM34.5956 116.212L33.673 115.202L31.9436 116.782L30.2527 114.932L36.7611 108.988L39.4934 111.978C41.1245 113.763 41.2292 115.724 39.7414 117.084C38.7842 117.958 37.6506 118.136 36.5171 117.68L35.7614 120.96L33.9509 118.979L34.5956 116.212ZM36.1999 104.645C36.7895 104.235 37.5097 104.367 37.9293 104.97C38.3489 105.573 38.2213 106.295 37.6317 106.704C37.0319 107.122 36.3116 106.991 35.8921 106.387C35.4725 105.784 35.6 105.062 36.1999 104.645V104.645ZM34.6074 105.753L36.0393 107.813L28.7996 112.849L27.3677 110.789L34.6074 105.753ZM26.797 103.369L25.4863 102.98L23.5192 103.972L22.4006 101.753L30.2708 97.7852L31.3886 100.004L28.1179 101.653L32.9354 103.069L34.1792 105.536L29.0617 104.058L26.3947 109.674L25.0825 107.072L26.797 103.369ZM127.884 47.6804L128.919 49.9656L122.691 52.7829L124.435 56.6393L122.634 57.4532L119.855 51.3124L127.884 47.6804ZM120.54 45.5754L122.249 43.0596L119.271 43.6815L120.54 45.5754ZM119.421 47.2081L117.335 44.0932L115.524 44.4671L114.1 42.3417L123.602 40.691L124.977 42.7432L119.839 50.907L118.386 48.7391L119.421 47.2081ZM110.357 34.2479L108.995 34.362L107.524 36.0017L105.676 34.3447L111.561 27.7867L113.41 29.4437L110.962 32.1697L115.965 31.7352L118.02 33.5788L112.717 34.0645L112.276 40.2635L110.108 38.3184L110.357 34.2479ZM104.214 22.8999L106.328 24.2483L102.649 30.0144L106.216 32.2886L105.152 33.9551L99.4719 30.3325L104.214 22.8999ZM98.8894 18.4649C99.1185 17.9186 99.6711 17.7139 100.197 17.9336C100.723 18.1532 100.965 18.6916 100.736 19.2371C100.508 19.7834 99.9592 19.9779 99.4334 19.7567C98.9075 19.5371 98.6611 19.0112 98.8894 18.4649V18.4649ZM96.4122 17.4282C96.6404 16.8827 97.1938 16.6772 97.7197 16.8976C98.2455 17.1173 98.4872 17.6549 98.2589 18.2012C98.0298 18.7467 97.4819 18.9404 96.9561 18.7207C96.4295 18.5011 96.1831 17.9745 96.4122 17.4282V17.4282ZM92.1661 22.7779L94.0538 18.2713L96.3681 19.2395L94.5095 23.6761C93.9254 25.0694 94.2765 25.8723 95.2463 26.2785C96.2051 26.6784 97.023 26.3659 97.6063 24.9718L99.4648 20.5352L101.744 21.4885L99.8561 25.9943C98.8398 28.422 96.8451 29.1847 94.4253 28.1732C92.0063 27.1609 91.1498 25.2055 92.1661 22.7779V22.7779ZM87.2155 25.5307L88.0145 20.928L85.0996 24.2696L84.0022 24.0728L82.4192 20.0527L81.6171 24.5278L79.3358 24.1185L80.8913 15.4421L82.9238 15.8066L85.0925 21.3633L88.9827 16.8921L91.0152 17.2566L89.485 25.9376L87.2155 25.5307ZM74.6332 22.2198L74.8253 24.1366L67.7438 24.845L66.8692 16.0758L73.787 15.3839L73.9775 17.2999L69.5299 17.7454L69.6771 19.2238L73.5965 18.8317L73.7807 20.6856L69.8621 21.0776L70.0219 22.6811L74.6332 22.2198ZM61.4038 24.431C62.8475 23.9996 63.5615 22.8519 63.1238 21.3909C62.6869 19.9306 61.4597 19.3639 60.016 19.7952L58.4991 20.2487L59.8877 24.8844L61.4038 24.431ZM55.526 19.06L59.5414 17.8596C62.3563 17.0181 64.773 18.0705 65.5499 20.6667C66.3277 23.2612 64.8871 25.4677 62.0722 26.31L58.0567 27.5104L55.526 19.06ZM50.758 21.3326L53.029 20.2676L56.7705 28.2464L54.4995 29.3123L50.758 21.3326ZM49.9346 19.578C49.63 18.9286 49.8811 18.2406 50.5462 17.9281C51.2114 17.6163 51.901 17.8627 52.2056 18.5121C52.5158 19.1734 52.2647 19.8614 51.5995 20.1739C50.9335 20.4856 50.2448 20.2392 49.9346 19.578V19.578ZM48.6806 28.5164L46.1845 26.7768L46.7717 29.7618L48.6806 28.5164ZM50.3006 29.6555L47.1614 31.7029L47.514 33.5182L45.3721 34.9154L43.8308 25.3953L45.8995 24.0468L54.0051 29.2839L51.8199 30.7087L50.3006 29.6555ZM41.8353 34.6942C41.4165 34.2581 40.8875 34.3652 40.2664 34.9619L38.7511 36.4166L39.9894 37.7068L41.5047 36.2505C42.1258 35.6554 42.2541 35.1303 41.8353 34.6942V34.6942ZM36.3793 33.9472L37.5562 35.1728L38.7976 33.981C39.4005 33.4017 39.5107 32.8955 39.1179 32.4862C38.7338 32.0863 38.2229 32.176 37.6207 32.7546L36.3793 33.9472ZM43.8528 33.1403C44.9077 34.2392 44.614 35.7609 42.898 37.4092L39.447 40.724L33.3432 34.3676L36.6116 31.2283C38.2906 29.6153 39.7666 29.5067 40.7081 30.4875C41.2921 31.096 41.4527 31.8848 41.1756 32.6916C42.1415 32.2532 43.1113 32.3689 43.8528 33.1403V33.1403ZM30.5078 46.18L26.5412 43.3225L28.0085 41.2892L31.9137 44.1018C33.1401 44.9851 34.0013 44.8253 34.6161 43.9727C35.2238 43.1312 35.1041 42.2638 33.8769 41.3805L29.9733 38.568L31.4177 36.5654L35.3843 39.422C37.52 40.961 37.812 43.0746 36.2778 45.2015C34.7444 47.3269 32.6442 47.7181 30.5078 46.18V46.18ZM29.2577 52.912C29.9008 51.5486 29.5254 50.2513 28.147 49.6011C26.7694 48.9517 25.5288 49.4869 24.8857 50.8503L24.2095 52.2838L28.5823 54.3454L29.2577 52.912ZM21.3402 53.7031L23.1295 49.9112C24.3835 47.2521 26.7797 46.1548 29.2286 47.3096C31.6767 48.4636 32.3545 51.0101 31.1005 53.6692L29.3112 57.4627L21.3402 53.7031ZM131.659 76C131.659 70.9699 130.979 65.9863 129.638 61.1868L128.879 61.3994C130.202 66.1295 130.872 71.0415 130.872 76C130.872 81.7511 129.974 87.4141 128.205 92.8284L128.953 93.0724C130.748 87.5794 131.659 81.8354 131.659 76V76ZM23.7955 92.8284C22.0259 87.4141 21.1285 81.7511 21.1285 76C21.1285 71.0415 21.7992 66.1295 23.1208 61.3994L22.3628 61.1868C21.0214 65.9863 20.3413 70.9699 20.3413 76C20.3413 81.8354 21.2521 87.5794 23.0476 93.0724L23.7955 92.8284ZM75.9998 144.225C38.3205 144.225 7.77475 113.679 7.77475 76C7.77475 38.32 38.3205 7.7742 75.9998 7.7742C113.68 7.7742 144.226 38.32 144.226 76C144.226 113.679 113.68 144.225 75.9998 144.225V144.225ZM75.9998 4.44994C36.484 4.44994 4.45048 36.4843 4.45048 76C4.45048 115.516 36.484 147.549 75.9998 147.549C115.516 147.549 147.55 115.516 147.55 76C147.55 36.4843 115.516 4.44994 75.9998 4.44994V4.44994ZM75.9998 0.787181C34.5279 0.787181 0.786937 34.5274 0.786937 76C0.786937 117.472 34.5279 151.212 75.9998 151.212C117.472 151.212 151.213 117.472 151.213 76C151.213 34.5274 117.472 0.787181 75.9998 0.787181V0.787181ZM75.9998 151.999C34.0934 151.999 -0.000244141 117.906 -0.000244141 76C-0.000244141 34.0928 34.0934 0 75.9998 0C117.907 0 152.001 34.0928 152.001 76C152.001 117.906 117.907 151.999 75.9998 151.999V151.999Z" fill="#5A5652"/>
</g>
</svg>
