<svg width="22" height="21" viewBox="0 0 22 21" fill="none" xmlns="http://www.w3.org/2000/svg">
<mask id="mask0_0_768" style="mask-type:luminance" maskUnits="userSpaceOnUse" x="0" y="0" width="22" height="21">
<path fill-rule="evenodd" clip-rule="evenodd" d="M0.802765 0.333008H21.2857V20.333H0.802765V0.333008Z" fill="white"/>
</mask>
<g mask="url(#mask0_0_768)">
<path fill-rule="evenodd" clip-rule="evenodd" d="M15.1211 0.333008C16.7673 0.333008 18.3164 0.958259 19.4802 2.09625C20.644 3.23263 21.286 4.74513 21.286 6.35246V14.3136C21.286 15.9209 20.644 17.4334 19.4802 18.5698C18.3164 19.7061 16.7673 20.333 15.1211 20.333H6.96767C5.31985 20.333 3.77245 19.7061 2.60861 18.5698C1.44312 17.4334 0.802765 15.9209 0.802765 14.3136V6.35246C0.802765 4.74513 1.44312 3.23263 2.60861 2.09625C3.77245 0.958259 5.31985 0.333008 6.96767 0.333008H15.1211ZM15.1211 18.6823C17.5887 18.6823 19.5954 16.7229 19.5954 14.3136V6.35246C19.5954 3.94307 17.5887 1.98374 15.1211 1.98374H6.96767C4.50006 1.98374 2.49338 3.94307 2.49338 6.35246V14.3136C2.49338 16.7229 4.50006 18.6823 6.96767 18.6823H15.1211Z" fill="url(#paint0_linear_0_768)"/>
</g>
<path fill-rule="evenodd" clip-rule="evenodd" d="M5.81749 10.3328C5.81749 13.1472 8.16163 15.436 11.0441 15.436C13.9265 15.436 16.2707 13.1472 16.2707 10.3328C16.2707 7.51833 13.9265 5.22949 11.0441 5.22949C8.16163 5.22949 5.81749 7.51833 5.81749 10.3328ZM7.5081 10.3328C7.5081 8.42968 9.09501 6.88022 11.0441 6.88022C12.9931 6.88022 14.58 8.42968 14.58 10.3328C14.58 12.2358 12.9931 13.7853 11.0441 13.7853C9.09501 13.7853 7.5081 12.2358 7.5081 10.3328Z" fill="url(#paint1_linear_0_768)"/>
<path d="M17.4329 5.07471C17.4329 5.61638 16.9834 6.05518 16.4287 6.05518C15.8756 6.05518 15.4262 5.61638 15.4262 5.07471C15.4262 4.53304 15.8756 4.09424 16.4287 4.09424C16.9834 4.09424 17.4329 4.53304 17.4329 5.07471" fill="url(#paint2_linear_0_768)"/>
<defs>
<linearGradient id="paint0_linear_0_768" x1="-12.3429" y1="6.20366" x2="8.18538" y2="31.1245" gradientUnits="userSpaceOnUse">
<stop stop-color="#FFF6AF"/>
<stop offset="0.130603" stop-color="#DBB667"/>
<stop offset="1" stop-color="#B6731B"/>
</linearGradient>
<linearGradient id="paint1_linear_0_768" x1="-0.891076" y1="8.22544" x2="9.58504" y2="20.9432" gradientUnits="userSpaceOnUse">
<stop stop-color="#FFF6AF"/>
<stop offset="0.130603" stop-color="#DBB667"/>
<stop offset="1" stop-color="#B6731B"/>
</linearGradient>
<linearGradient id="paint2_linear_0_768" x1="14.1383" y1="4.66984" x2="16.1514" y2="7.11164" gradientUnits="userSpaceOnUse">
<stop stop-color="#FFF6AF"/>
<stop offset="0.130603" stop-color="#DBB667"/>
<stop offset="1" stop-color="#B6731B"/>
</linearGradient>
</defs>
</svg>
